# Blender 4.5.0
# www.blender.org
mtllib commandeCollector.mtl
o Cube
v 0.247998 -0.054067 -0.241577
v 0.247998 -0.300306 -0.241577
v 0.247998 -0.054067 0.223928
v 0.247998 -0.300306 0.223928
v -0.217507 -0.054067 -0.241577
v -0.217507 -0.300306 -0.241577
v -0.217507 -0.054067 0.223928
v -0.217507 -0.300306 0.223928
v 0.521787 0.299824 -0.241577
v 0.521787 -0.300306 -0.241577
v 0.521787 0.299824 0.223928
v 0.521787 -0.300306 0.223928
v -0.468171 -0.300306 -0.241577
v -0.468171 -0.300306 0.223928
v -0.468171 0.299824 0.223928
v -0.468171 0.299824 -0.241577
v 0.247998 0.129551 -0.488686
v 0.247998 -0.300306 -0.488686
v -0.217507 0.129551 -0.488686
v -0.217507 -0.300306 -0.488686
vn -0.0000 1.0000 -0.0000
vn -0.0000 -0.0000 1.0000
vn -0.0000 -1.0000 -0.0000
vn 1.0000 -0.0000 -0.0000
vn -0.0000 -0.0000 -1.0000
vn -0.7909 0.6119 -0.0000
vn -1.0000 -0.0000 -0.0000
vn 0.8160 0.5780 -0.0000
vn -0.0000 0.8027 0.5964
vt 0.625000 0.500000
vt 0.875000 0.500000
vt 0.875000 0.750000
vt 0.625000 0.750000
vt 0.375000 0.750000
vt 0.625000 1.000000
vt 0.375000 1.000000
vt 0.125000 0.500000
vt 0.125000 0.750000
vt 0.375000 0.500000
vt 0.375000 0.000000
vt 0.625000 0.000000
vt 0.625000 0.250000
vt 0.375000 0.250000
s 0
usemtl Material
f 1/1/1 5/2/1 7/3/1 3/4/1
f 4/5/2 3/4/2 7/6/2 8/7/2
f 6/8/3 8/9/3 14/9/3 13/8/3
f 6/8/3 2/10/3 4/5/3 8/9/3
f 3/4/2 4/5/2 12/5/2 11/4/2
f 2/10/3 6/8/3 20/8/3 18/10/3
f 10/10/4 9/1/4 11/4/4 12/5/4
f 2/10/5 1/1/5 9/1/5 10/10/5
f 4/5/3 2/10/3 10/10/3 12/5/3
f 1/1/6 3/4/6 11/4/6 9/1/6
f 14/11/7 15/12/7 16/13/7 13/14/7
f 7/3/8 5/2/8 16/2/8 15/3/8
f 5/13/5 6/14/5 13/14/5 16/13/5
f 8/7/2 7/6/2 15/6/2 14/7/2
f 20/14/5 19/13/5 17/1/5 18/10/5
f 5/2/9 1/1/9 17/1/9 19/2/9
f 1/1/4 2/10/4 18/10/4 17/1/4
f 6/14/7 5/13/7 19/13/7 20/14/7
